<mxfile host="app.diagrams.net" agent="Mozilla/5.0 (Windows NT 10.0; Win64; x64) AppleWebKit/537.36 (KHTML, like Gecko) Chrome/136.0.0.0 Safari/537.36 Edg/136.0.0.0" version="27.0.3">
  <diagram name="Page-1" id="mmaIU_BT3ZasT8Kuqj6s">
    <mxGraphModel dx="3151" dy="2847" grid="1" gridSize="10" guides="1" tooltips="1" connect="1" arrows="1" fold="1" page="1" pageScale="1" pageWidth="850" pageHeight="1100" math="0" shadow="0">
      <root>
        <mxCell id="0" />
        <mxCell id="1" parent="0" />
        <mxCell id="Icxeci1pG1sWBom1-_w5-1" value="Vehicle" style="swimlane;fontStyle=1;align=center;verticalAlign=top;childLayout=stackLayout;horizontal=1;startSize=26;horizontalStack=0;resizeParent=1;resizeParentMax=0;resizeLast=0;collapsible=1;marginBottom=0;whiteSpace=wrap;html=1;" vertex="1" parent="1">
          <mxGeometry x="120" width="240" height="280" as="geometry" />
        </mxCell>
        <mxCell id="Icxeci1pG1sWBom1-_w5-2" value="-id : Long&lt;div&gt;-plateNumber : String&lt;/div&gt;&lt;div&gt;-ownership : OwnershipType&lt;/div&gt;&lt;div&gt;-model :String&lt;/div&gt;&lt;div&gt;-brand : String&lt;/div&gt;&lt;div&gt;-leaseStartDate : Date&lt;/div&gt;&lt;div&gt;-leaseEndDate : Date&lt;/div&gt;" style="text;strokeColor=none;fillColor=none;align=left;verticalAlign=top;spacingLeft=4;spacingRight=4;overflow=hidden;rotatable=0;points=[[0,0.5],[1,0.5]];portConstraint=eastwest;whiteSpace=wrap;html=1;" vertex="1" parent="Icxeci1pG1sWBom1-_w5-1">
          <mxGeometry y="26" width="240" height="114" as="geometry" />
        </mxCell>
        <mxCell id="Icxeci1pG1sWBom1-_w5-113" value="" style="line;strokeWidth=1;fillColor=none;align=left;verticalAlign=middle;spacingTop=-1;spacingLeft=3;spacingRight=3;rotatable=0;labelPosition=right;points=[];portConstraint=eastwest;strokeColor=inherit;" vertex="1" parent="Icxeci1pG1sWBom1-_w5-1">
          <mxGeometry y="140" width="240" height="8" as="geometry" />
        </mxCell>
        <mxCell id="Icxeci1pG1sWBom1-_w5-112" value="&lt;div&gt;&amp;nbsp; + addOdometerReading(r: OdometerReading): void&lt;/div&gt;&lt;div&gt;&amp;nbsp; + assignToPool(mission: String): PoolAssignment&lt;/div&gt;&lt;div&gt;&amp;nbsp; + assignToEmployee(e: Employee, start: Date, end: Date): EmployeeAssignment&lt;/div&gt;&lt;div&gt;&amp;nbsp; + getCurrentOdometer(): int&lt;/div&gt;&lt;div&gt;&amp;nbsp; + getMileage(start: Date, end: Date): int&lt;/div&gt;" style="text;strokeColor=none;fillColor=none;align=left;verticalAlign=top;spacingLeft=4;spacingRight=4;overflow=hidden;rotatable=0;points=[[0,0.5],[1,0.5]];portConstraint=eastwest;whiteSpace=wrap;html=1;" vertex="1" parent="Icxeci1pG1sWBom1-_w5-1">
          <mxGeometry y="148" width="240" height="132" as="geometry" />
        </mxCell>
        <mxCell id="Icxeci1pG1sWBom1-_w5-5" value="Report" style="swimlane;fontStyle=1;align=center;verticalAlign=top;childLayout=stackLayout;horizontal=1;startSize=26;horizontalStack=0;resizeParent=1;resizeParentMax=0;resizeLast=0;collapsible=1;marginBottom=0;whiteSpace=wrap;html=1;" vertex="1" parent="1">
          <mxGeometry x="395" y="-48" width="330" height="180" as="geometry" />
        </mxCell>
        <mxCell id="Icxeci1pG1sWBom1-_w5-6" value="&lt;div&gt;&amp;nbsp; - id: Long&lt;/div&gt;&lt;div&gt;&amp;nbsp; - date: Date&lt;/div&gt;&lt;div&gt;&amp;nbsp; - content: String&lt;/div&gt;&lt;div&gt;&amp;nbsp; - generatedBy: User&lt;/div&gt;" style="text;strokeColor=none;fillColor=none;align=left;verticalAlign=top;spacingLeft=4;spacingRight=4;overflow=hidden;rotatable=0;points=[[0,0.5],[1,0.5]];portConstraint=eastwest;whiteSpace=wrap;html=1;" vertex="1" parent="Icxeci1pG1sWBom1-_w5-5">
          <mxGeometry y="26" width="330" height="64" as="geometry" />
        </mxCell>
        <mxCell id="Icxeci1pG1sWBom1-_w5-7" value="" style="line;strokeWidth=1;fillColor=none;align=left;verticalAlign=middle;spacingTop=-1;spacingLeft=3;spacingRight=3;rotatable=0;labelPosition=right;points=[];portConstraint=eastwest;strokeColor=inherit;" vertex="1" parent="Icxeci1pG1sWBom1-_w5-5">
          <mxGeometry y="90" width="330" height="8" as="geometry" />
        </mxCell>
        <mxCell id="Icxeci1pG1sWBom1-_w5-114" value="&lt;div&gt;&amp;nbsp; + generateAllReports(from: Date, to: Date): Report&lt;/div&gt;&lt;div&gt;&amp;nbsp; + generateVehicleReport(vehicleId: Long, from: Date, to: Date): Report&lt;/div&gt;" style="text;strokeColor=none;fillColor=none;align=left;verticalAlign=top;spacingLeft=4;spacingRight=4;overflow=hidden;rotatable=0;points=[[0,0.5],[1,0.5]];portConstraint=eastwest;whiteSpace=wrap;html=1;" vertex="1" parent="Icxeci1pG1sWBom1-_w5-5">
          <mxGeometry y="98" width="330" height="82" as="geometry" />
        </mxCell>
        <mxCell id="Icxeci1pG1sWBom1-_w5-13" value="&lt;span style=&quot;font-weight: normal;&quot;&gt;&amp;lt;&amp;lt;Abstract&amp;gt;&amp;gt;&lt;/span&gt;&lt;div&gt;&lt;span style=&quot;font-weight: normal;&quot;&gt;Assignment&lt;/span&gt;&lt;/div&gt;" style="swimlane;fontStyle=1;align=center;verticalAlign=top;childLayout=stackLayout;horizontal=1;startSize=40;horizontalStack=0;resizeParent=1;resizeParentMax=0;resizeLast=0;collapsible=1;marginBottom=0;whiteSpace=wrap;html=1;" vertex="1" parent="1">
          <mxGeometry x="480" y="-400" width="250" height="128" as="geometry" />
        </mxCell>
        <mxCell id="Icxeci1pG1sWBom1-_w5-14" value="&lt;div&gt;&amp;nbsp; - id: Long&lt;/div&gt;&lt;div&gt;&amp;nbsp; - startDate: Date&lt;/div&gt;&lt;div&gt;&amp;nbsp; - endDate: Date&lt;/div&gt;&lt;div&gt;&amp;nbsp; - vehicle: Vehicle&lt;/div&gt;&lt;div&gt;&amp;nbsp; - tripLogs: List&amp;lt;TripLog&amp;gt;&lt;/div&gt;" style="text;strokeColor=none;fillColor=none;align=left;verticalAlign=top;spacingLeft=4;spacingRight=4;overflow=hidden;rotatable=0;points=[[0,0.5],[1,0.5]];portConstraint=eastwest;whiteSpace=wrap;html=1;" vertex="1" parent="Icxeci1pG1sWBom1-_w5-13">
          <mxGeometry y="40" width="250" height="80" as="geometry" />
        </mxCell>
        <mxCell id="Icxeci1pG1sWBom1-_w5-15" value="" style="line;strokeWidth=1;fillColor=none;align=left;verticalAlign=middle;spacingTop=-1;spacingLeft=3;spacingRight=3;rotatable=0;labelPosition=right;points=[];portConstraint=eastwest;strokeColor=inherit;" vertex="1" parent="Icxeci1pG1sWBom1-_w5-13">
          <mxGeometry y="120" width="250" height="8" as="geometry" />
        </mxCell>
        <mxCell id="Icxeci1pG1sWBom1-_w5-17" value="OdometerReading" style="swimlane;fontStyle=1;align=center;verticalAlign=top;childLayout=stackLayout;horizontal=1;startSize=26;horizontalStack=0;resizeParent=1;resizeParentMax=0;resizeLast=0;collapsible=1;marginBottom=0;whiteSpace=wrap;html=1;" vertex="1" parent="1">
          <mxGeometry x="160" y="560" width="400" height="150" as="geometry" />
        </mxCell>
        <mxCell id="Icxeci1pG1sWBom1-_w5-18" value="&lt;div&gt;&amp;nbsp; - id: Long&lt;/div&gt;&lt;div&gt;&amp;nbsp; - date: Date&lt;/div&gt;&lt;div&gt;&amp;nbsp; - km: int&lt;/div&gt;&lt;div&gt;&amp;nbsp; - vehicle: Vehicle&lt;/div&gt;" style="text;strokeColor=none;fillColor=none;align=left;verticalAlign=top;spacingLeft=4;spacingRight=4;overflow=hidden;rotatable=0;points=[[0,0.5],[1,0.5]];portConstraint=eastwest;whiteSpace=wrap;html=1;" vertex="1" parent="Icxeci1pG1sWBom1-_w5-17">
          <mxGeometry y="26" width="400" height="74" as="geometry" />
        </mxCell>
        <mxCell id="Icxeci1pG1sWBom1-_w5-19" value="" style="line;strokeWidth=1;fillColor=none;align=left;verticalAlign=middle;spacingTop=-1;spacingLeft=3;spacingRight=3;rotatable=0;labelPosition=right;points=[];portConstraint=eastwest;strokeColor=inherit;" vertex="1" parent="Icxeci1pG1sWBom1-_w5-17">
          <mxGeometry y="100" width="400" height="8" as="geometry" />
        </mxCell>
        <mxCell id="Icxeci1pG1sWBom1-_w5-116" value="&lt;div&gt;&amp;nbsp; + getDelta(): int&lt;/div&gt;&lt;div&gt;&amp;nbsp; + findByVehicleId(vehicleId: Long): List&amp;lt;OdometerReading&amp;gt;&lt;/div&gt;" style="text;strokeColor=none;fillColor=none;align=left;verticalAlign=top;spacingLeft=4;spacingRight=4;overflow=hidden;rotatable=0;points=[[0,0.5],[1,0.5]];portConstraint=eastwest;whiteSpace=wrap;html=1;" vertex="1" parent="Icxeci1pG1sWBom1-_w5-17">
          <mxGeometry y="108" width="400" height="42" as="geometry" />
        </mxCell>
        <mxCell id="Icxeci1pG1sWBom1-_w5-21" value="User" style="swimlane;fontStyle=1;align=center;verticalAlign=top;childLayout=stackLayout;horizontal=1;startSize=26;horizontalStack=0;resizeParent=1;resizeParentMax=0;resizeLast=0;collapsible=1;marginBottom=0;whiteSpace=wrap;html=1;" vertex="1" parent="1">
          <mxGeometry x="850" width="160" height="130" as="geometry" />
        </mxCell>
        <mxCell id="Icxeci1pG1sWBom1-_w5-22" value="&lt;div&gt;&amp;nbsp; - id: String&lt;/div&gt;&lt;div&gt;&amp;nbsp; - username: String&lt;/div&gt;&lt;div&gt;&amp;nbsp; - role: UserRole&lt;/div&gt;" style="text;strokeColor=none;fillColor=none;align=left;verticalAlign=top;spacingLeft=4;spacingRight=4;overflow=hidden;rotatable=0;points=[[0,0.5],[1,0.5]];portConstraint=eastwest;whiteSpace=wrap;html=1;" vertex="1" parent="Icxeci1pG1sWBom1-_w5-21">
          <mxGeometry y="26" width="160" height="54" as="geometry" />
        </mxCell>
        <mxCell id="Icxeci1pG1sWBom1-_w5-23" value="" style="line;strokeWidth=1;fillColor=none;align=left;verticalAlign=middle;spacingTop=-1;spacingLeft=3;spacingRight=3;rotatable=0;labelPosition=right;points=[];portConstraint=eastwest;strokeColor=inherit;" vertex="1" parent="Icxeci1pG1sWBom1-_w5-21">
          <mxGeometry y="80" width="160" height="8" as="geometry" />
        </mxCell>
        <mxCell id="Icxeci1pG1sWBom1-_w5-117" value="&lt;div&gt;&amp;nbsp; + login(): boolean&lt;/div&gt;&lt;div&gt;&amp;nbsp; + logout(): void&lt;/div&gt;" style="text;strokeColor=none;fillColor=none;align=left;verticalAlign=top;spacingLeft=4;spacingRight=4;overflow=hidden;rotatable=0;points=[[0,0.5],[1,0.5]];portConstraint=eastwest;whiteSpace=wrap;html=1;" vertex="1" parent="Icxeci1pG1sWBom1-_w5-21">
          <mxGeometry y="88" width="160" height="42" as="geometry" />
        </mxCell>
        <mxCell id="Icxeci1pG1sWBom1-_w5-25" value="Expense" style="swimlane;fontStyle=1;align=center;verticalAlign=top;childLayout=stackLayout;horizontal=1;startSize=26;horizontalStack=0;resizeParent=1;resizeParentMax=0;resizeLast=0;collapsible=1;marginBottom=0;whiteSpace=wrap;html=1;" vertex="1" parent="1">
          <mxGeometry x="450" y="240" width="330" height="250" as="geometry" />
        </mxCell>
        <mxCell id="Icxeci1pG1sWBom1-_w5-26" value="&lt;div&gt;&amp;nbsp; - id: Long&lt;/div&gt;&lt;div&gt;&amp;nbsp; - date: Date&lt;/div&gt;&lt;div&gt;&amp;nbsp; - type: ExpenseType&lt;/div&gt;&lt;div&gt;&amp;nbsp; - amount: double&lt;/div&gt;&lt;div&gt;&amp;nbsp; - description: String&lt;/div&gt;&lt;div&gt;&amp;nbsp; - vehicle: Vehicle&lt;/div&gt;&lt;div&gt;&amp;nbsp; - vendor: Vendor&lt;/div&gt;&lt;div&gt;&amp;nbsp; - validatedBy: User&lt;/div&gt;" style="text;strokeColor=none;fillColor=none;align=left;verticalAlign=top;spacingLeft=4;spacingRight=4;overflow=hidden;rotatable=0;points=[[0,0.5],[1,0.5]];portConstraint=eastwest;whiteSpace=wrap;html=1;" vertex="1" parent="Icxeci1pG1sWBom1-_w5-25">
          <mxGeometry y="26" width="330" height="124" as="geometry" />
        </mxCell>
        <mxCell id="Icxeci1pG1sWBom1-_w5-27" value="" style="line;strokeWidth=1;fillColor=none;align=left;verticalAlign=middle;spacingTop=-1;spacingLeft=3;spacingRight=3;rotatable=0;labelPosition=right;points=[];portConstraint=eastwest;strokeColor=inherit;" vertex="1" parent="Icxeci1pG1sWBom1-_w5-25">
          <mxGeometry y="150" width="330" height="8" as="geometry" />
        </mxCell>
        <mxCell id="Icxeci1pG1sWBom1-_w5-115" value="&lt;div&gt;&amp;nbsp; + getTotalByType(type: ExpenseType): double&lt;/div&gt;&lt;div&gt;&amp;nbsp; + findByVehicleId(vehicleId: Long): List&amp;lt;Expense&amp;gt;&lt;/div&gt;&lt;div&gt;&amp;nbsp; + generateExpenseForecast(period: int): Map&amp;lt;ExpenseType,Double&amp;gt;&lt;/div&gt;" style="text;strokeColor=none;fillColor=none;align=left;verticalAlign=top;spacingLeft=4;spacingRight=4;overflow=hidden;rotatable=0;points=[[0,0.5],[1,0.5]];portConstraint=eastwest;whiteSpace=wrap;html=1;" vertex="1" parent="Icxeci1pG1sWBom1-_w5-25">
          <mxGeometry y="158" width="330" height="92" as="geometry" />
        </mxCell>
        <mxCell id="Icxeci1pG1sWBom1-_w5-29" value="EmployeeAssignment" style="swimlane;fontStyle=1;align=center;verticalAlign=top;childLayout=stackLayout;horizontal=1;startSize=26;horizontalStack=0;resizeParent=1;resizeParentMax=0;resizeLast=0;collapsible=1;marginBottom=0;whiteSpace=wrap;html=1;" vertex="1" parent="1">
          <mxGeometry x="1060" y="-375" width="160" height="120" as="geometry" />
        </mxCell>
        <mxCell id="Icxeci1pG1sWBom1-_w5-30" value="&lt;div&gt;&amp;nbsp; - approved: boolean&lt;/div&gt;&lt;div&gt;&amp;nbsp; - employee: Employee&lt;/div&gt;" style="text;strokeColor=none;fillColor=none;align=left;verticalAlign=top;spacingLeft=4;spacingRight=4;overflow=hidden;rotatable=0;points=[[0,0.5],[1,0.5]];portConstraint=eastwest;whiteSpace=wrap;html=1;" vertex="1" parent="Icxeci1pG1sWBom1-_w5-29">
          <mxGeometry y="26" width="160" height="44" as="geometry" />
        </mxCell>
        <mxCell id="Icxeci1pG1sWBom1-_w5-31" value="" style="line;strokeWidth=1;fillColor=none;align=left;verticalAlign=middle;spacingTop=-1;spacingLeft=3;spacingRight=3;rotatable=0;labelPosition=right;points=[];portConstraint=eastwest;strokeColor=inherit;" vertex="1" parent="Icxeci1pG1sWBom1-_w5-29">
          <mxGeometry y="70" width="160" height="8" as="geometry" />
        </mxCell>
        <mxCell id="Icxeci1pG1sWBom1-_w5-121" value="&lt;div&gt;&amp;nbsp; + approve(): void&lt;/div&gt;&lt;div&gt;&amp;nbsp; + reject(): void&lt;/div&gt;" style="text;strokeColor=none;fillColor=none;align=left;verticalAlign=top;spacingLeft=4;spacingRight=4;overflow=hidden;rotatable=0;points=[[0,0.5],[1,0.5]];portConstraint=eastwest;whiteSpace=wrap;html=1;" vertex="1" parent="Icxeci1pG1sWBom1-_w5-29">
          <mxGeometry y="78" width="160" height="42" as="geometry" />
        </mxCell>
        <mxCell id="Icxeci1pG1sWBom1-_w5-33" value="PoolAssignment" style="swimlane;fontStyle=1;align=center;verticalAlign=top;childLayout=stackLayout;horizontal=1;startSize=26;horizontalStack=0;resizeParent=1;resizeParentMax=0;resizeLast=0;collapsible=1;marginBottom=0;whiteSpace=wrap;html=1;" vertex="1" parent="1">
          <mxGeometry x="850" y="-190" width="160" height="60" as="geometry" />
        </mxCell>
        <mxCell id="Icxeci1pG1sWBom1-_w5-34" value="&amp;nbsp; - mission: String" style="text;strokeColor=none;fillColor=none;align=left;verticalAlign=top;spacingLeft=4;spacingRight=4;overflow=hidden;rotatable=0;points=[[0,0.5],[1,0.5]];portConstraint=eastwest;whiteSpace=wrap;html=1;" vertex="1" parent="Icxeci1pG1sWBom1-_w5-33">
          <mxGeometry y="26" width="160" height="26" as="geometry" />
        </mxCell>
        <mxCell id="Icxeci1pG1sWBom1-_w5-35" value="" style="line;strokeWidth=1;fillColor=none;align=left;verticalAlign=middle;spacingTop=-1;spacingLeft=3;spacingRight=3;rotatable=0;labelPosition=right;points=[];portConstraint=eastwest;strokeColor=inherit;" vertex="1" parent="Icxeci1pG1sWBom1-_w5-33">
          <mxGeometry y="52" width="160" height="8" as="geometry" />
        </mxCell>
        <mxCell id="Icxeci1pG1sWBom1-_w5-45" value="ForecastModel" style="swimlane;fontStyle=1;align=center;verticalAlign=top;childLayout=stackLayout;horizontal=1;startSize=26;horizontalStack=0;resizeParent=1;resizeParentMax=0;resizeLast=0;collapsible=1;marginBottom=0;whiteSpace=wrap;html=1;" vertex="1" parent="1">
          <mxGeometry x="1000" y="340" width="230" height="100" as="geometry" />
        </mxCell>
        <mxCell id="Icxeci1pG1sWBom1-_w5-46" value="&amp;nbsp; - windowSize: int" style="text;strokeColor=none;fillColor=none;align=left;verticalAlign=top;spacingLeft=4;spacingRight=4;overflow=hidden;rotatable=0;points=[[0,0.5],[1,0.5]];portConstraint=eastwest;whiteSpace=wrap;html=1;" vertex="1" parent="Icxeci1pG1sWBom1-_w5-45">
          <mxGeometry y="26" width="230" height="26" as="geometry" />
        </mxCell>
        <mxCell id="Icxeci1pG1sWBom1-_w5-47" value="" style="line;strokeWidth=1;fillColor=none;align=left;verticalAlign=middle;spacingTop=-1;spacingLeft=3;spacingRight=3;rotatable=0;labelPosition=right;points=[];portConstraint=eastwest;strokeColor=inherit;" vertex="1" parent="Icxeci1pG1sWBom1-_w5-45">
          <mxGeometry y="52" width="230" height="8" as="geometry" />
        </mxCell>
        <mxCell id="Icxeci1pG1sWBom1-_w5-122" value="&amp;nbsp; + calculateMovingAverage(data: List&amp;lt;Double&amp;gt;): double" style="text;strokeColor=none;fillColor=none;align=left;verticalAlign=top;spacingLeft=4;spacingRight=4;overflow=hidden;rotatable=0;points=[[0,0.5],[1,0.5]];portConstraint=eastwest;whiteSpace=wrap;html=1;" vertex="1" parent="Icxeci1pG1sWBom1-_w5-45">
          <mxGeometry y="60" width="230" height="40" as="geometry" />
        </mxCell>
        <mxCell id="Icxeci1pG1sWBom1-_w5-53" value="Employee" style="swimlane;fontStyle=1;align=center;verticalAlign=top;childLayout=stackLayout;horizontal=1;startSize=26;horizontalStack=0;resizeParent=1;resizeParentMax=0;resizeLast=0;collapsible=1;marginBottom=0;whiteSpace=wrap;html=1;" vertex="1" parent="1">
          <mxGeometry x="1145" y="-80" width="395" height="100" as="geometry" />
        </mxCell>
        <mxCell id="Icxeci1pG1sWBom1-_w5-54" value="&amp;nbsp; - department: String" style="text;strokeColor=none;fillColor=none;align=left;verticalAlign=top;spacingLeft=4;spacingRight=4;overflow=hidden;rotatable=0;points=[[0,0.5],[1,0.5]];portConstraint=eastwest;whiteSpace=wrap;html=1;" vertex="1" parent="Icxeci1pG1sWBom1-_w5-53">
          <mxGeometry y="26" width="395" height="26" as="geometry" />
        </mxCell>
        <mxCell id="Icxeci1pG1sWBom1-_w5-55" value="" style="line;strokeWidth=1;fillColor=none;align=left;verticalAlign=middle;spacingTop=-1;spacingLeft=3;spacingRight=3;rotatable=0;labelPosition=right;points=[];portConstraint=eastwest;strokeColor=inherit;" vertex="1" parent="Icxeci1pG1sWBom1-_w5-53">
          <mxGeometry y="52" width="395" height="8" as="geometry" />
        </mxCell>
        <mxCell id="Icxeci1pG1sWBom1-_w5-118" value="&amp;nbsp; + assignVehicle(vehicleId: Long, empId: Long, start: Date, end: Date): EmployeeAssignment" style="text;strokeColor=none;fillColor=none;align=left;verticalAlign=top;spacingLeft=4;spacingRight=4;overflow=hidden;rotatable=0;points=[[0,0.5],[1,0.5]];portConstraint=eastwest;whiteSpace=wrap;html=1;" vertex="1" parent="Icxeci1pG1sWBom1-_w5-53">
          <mxGeometry y="60" width="395" height="40" as="geometry" />
        </mxCell>
        <mxCell id="Icxeci1pG1sWBom1-_w5-57" value="Vendor" style="swimlane;fontStyle=1;align=center;verticalAlign=top;childLayout=stackLayout;horizontal=1;startSize=26;horizontalStack=0;resizeParent=1;resizeParentMax=0;resizeLast=0;collapsible=1;marginBottom=0;whiteSpace=wrap;html=1;" vertex="1" parent="1">
          <mxGeometry x="1240" y="132" width="160" height="68" as="geometry" />
        </mxCell>
        <mxCell id="Icxeci1pG1sWBom1-_w5-58" value="&lt;div&gt;&amp;nbsp; - name: String&lt;/div&gt;&lt;div&gt;&amp;nbsp; - companyName: String&lt;/div&gt;" style="text;strokeColor=none;fillColor=none;align=left;verticalAlign=top;spacingLeft=4;spacingRight=4;overflow=hidden;rotatable=0;points=[[0,0.5],[1,0.5]];portConstraint=eastwest;whiteSpace=wrap;html=1;" vertex="1" parent="Icxeci1pG1sWBom1-_w5-57">
          <mxGeometry y="26" width="160" height="34" as="geometry" />
        </mxCell>
        <mxCell id="Icxeci1pG1sWBom1-_w5-59" value="" style="line;strokeWidth=1;fillColor=none;align=left;verticalAlign=middle;spacingTop=-1;spacingLeft=3;spacingRight=3;rotatable=0;labelPosition=right;points=[];portConstraint=eastwest;strokeColor=inherit;" vertex="1" parent="Icxeci1pG1sWBom1-_w5-57">
          <mxGeometry y="60" width="160" height="8" as="geometry" />
        </mxCell>
        <mxCell id="Icxeci1pG1sWBom1-_w5-61" value="TripLog" style="swimlane;fontStyle=1;align=center;verticalAlign=top;childLayout=stackLayout;horizontal=1;startSize=26;horizontalStack=0;resizeParent=1;resizeParentMax=0;resizeLast=0;collapsible=1;marginBottom=0;whiteSpace=wrap;html=1;" vertex="1" parent="1">
          <mxGeometry x="1350" y="-370" width="260" height="130" as="geometry" />
        </mxCell>
        <mxCell id="Icxeci1pG1sWBom1-_w5-62" value="&lt;div&gt;&amp;nbsp; - id: Long&lt;/div&gt;&lt;div&gt;&amp;nbsp; - date: Date&lt;/div&gt;&lt;div&gt;&amp;nbsp; - km: Long&lt;/div&gt;" style="text;strokeColor=none;fillColor=none;align=left;verticalAlign=top;spacingLeft=4;spacingRight=4;overflow=hidden;rotatable=0;points=[[0,0.5],[1,0.5]];portConstraint=eastwest;whiteSpace=wrap;html=1;" vertex="1" parent="Icxeci1pG1sWBom1-_w5-61">
          <mxGeometry y="26" width="260" height="54" as="geometry" />
        </mxCell>
        <mxCell id="Icxeci1pG1sWBom1-_w5-63" value="" style="line;strokeWidth=1;fillColor=none;align=left;verticalAlign=middle;spacingTop=-1;spacingLeft=3;spacingRight=3;rotatable=0;labelPosition=right;points=[];portConstraint=eastwest;strokeColor=inherit;" vertex="1" parent="Icxeci1pG1sWBom1-_w5-61">
          <mxGeometry y="80" width="260" height="8" as="geometry" />
        </mxCell>
        <mxCell id="Icxeci1pG1sWBom1-_w5-120" value="&amp;nbsp; + findByAssignment(assignmentId: Long): TripLog" style="text;strokeColor=none;fillColor=none;align=left;verticalAlign=top;spacingLeft=4;spacingRight=4;overflow=hidden;rotatable=0;points=[[0,0.5],[1,0.5]];portConstraint=eastwest;whiteSpace=wrap;html=1;" vertex="1" parent="Icxeci1pG1sWBom1-_w5-61">
          <mxGeometry y="88" width="260" height="42" as="geometry" />
        </mxCell>
        <mxCell id="Icxeci1pG1sWBom1-_w5-69" value="" style="endArrow=classic;html=1;rounded=0;" edge="1" parent="1" source="Icxeci1pG1sWBom1-_w5-1" target="Icxeci1pG1sWBom1-_w5-25">
          <mxGeometry relative="1" as="geometry">
            <mxPoint x="290" y="270" as="sourcePoint" />
            <mxPoint x="450" y="270" as="targetPoint" />
          </mxGeometry>
        </mxCell>
        <mxCell id="Icxeci1pG1sWBom1-_w5-70" value="incurs" style="edgeLabel;resizable=0;html=1;;align=center;verticalAlign=middle;" connectable="0" vertex="1" parent="Icxeci1pG1sWBom1-_w5-69">
          <mxGeometry relative="1" as="geometry" />
        </mxCell>
        <mxCell id="Icxeci1pG1sWBom1-_w5-71" value="1" style="edgeLabel;resizable=0;html=1;;align=left;verticalAlign=bottom;" connectable="0" vertex="1" parent="Icxeci1pG1sWBom1-_w5-69">
          <mxGeometry x="-1" relative="1" as="geometry" />
        </mxCell>
        <mxCell id="Icxeci1pG1sWBom1-_w5-72" value="*" style="edgeLabel;resizable=0;html=1;;align=right;verticalAlign=bottom;" connectable="0" vertex="1" parent="Icxeci1pG1sWBom1-_w5-69">
          <mxGeometry x="1" relative="1" as="geometry">
            <mxPoint x="-10" as="offset" />
          </mxGeometry>
        </mxCell>
        <mxCell id="Icxeci1pG1sWBom1-_w5-73" value="" style="endArrow=classic;html=1;rounded=0;" edge="1" parent="1" source="Icxeci1pG1sWBom1-_w5-1" target="Icxeci1pG1sWBom1-_w5-17">
          <mxGeometry relative="1" as="geometry">
            <mxPoint x="250" y="470" as="sourcePoint" />
            <mxPoint x="410" y="470" as="targetPoint" />
          </mxGeometry>
        </mxCell>
        <mxCell id="Icxeci1pG1sWBom1-_w5-74" value="has" style="edgeLabel;resizable=0;html=1;;align=center;verticalAlign=middle;" connectable="0" vertex="1" parent="Icxeci1pG1sWBom1-_w5-73">
          <mxGeometry relative="1" as="geometry" />
        </mxCell>
        <mxCell id="Icxeci1pG1sWBom1-_w5-75" value="1" style="edgeLabel;resizable=0;html=1;;align=left;verticalAlign=bottom;" connectable="0" vertex="1" parent="Icxeci1pG1sWBom1-_w5-73">
          <mxGeometry x="-1" relative="1" as="geometry">
            <mxPoint x="11" y="30" as="offset" />
          </mxGeometry>
        </mxCell>
        <mxCell id="Icxeci1pG1sWBom1-_w5-76" value="*" style="edgeLabel;resizable=0;html=1;;align=right;verticalAlign=bottom;" connectable="0" vertex="1" parent="Icxeci1pG1sWBom1-_w5-73">
          <mxGeometry x="1" relative="1" as="geometry">
            <mxPoint x="-10" y="-18" as="offset" />
          </mxGeometry>
        </mxCell>
        <mxCell id="Icxeci1pG1sWBom1-_w5-77" value="" style="endArrow=classic;html=1;rounded=0;" edge="1" parent="1" source="Icxeci1pG1sWBom1-_w5-1" target="Icxeci1pG1sWBom1-_w5-13">
          <mxGeometry relative="1" as="geometry">
            <mxPoint x="200" y="60" as="sourcePoint" />
            <mxPoint x="360" y="60" as="targetPoint" />
          </mxGeometry>
        </mxCell>
        <mxCell id="Icxeci1pG1sWBom1-_w5-78" value="has" style="edgeLabel;resizable=0;html=1;;align=center;verticalAlign=middle;" connectable="0" vertex="1" parent="Icxeci1pG1sWBom1-_w5-77">
          <mxGeometry relative="1" as="geometry" />
        </mxCell>
        <mxCell id="Icxeci1pG1sWBom1-_w5-79" value="1" style="edgeLabel;resizable=0;html=1;;align=left;verticalAlign=bottom;" connectable="0" vertex="1" parent="Icxeci1pG1sWBom1-_w5-77">
          <mxGeometry x="-1" relative="1" as="geometry">
            <mxPoint x="-9" y="-10" as="offset" />
          </mxGeometry>
        </mxCell>
        <mxCell id="Icxeci1pG1sWBom1-_w5-80" value="*" style="edgeLabel;resizable=0;html=1;;align=right;verticalAlign=bottom;" connectable="0" vertex="1" parent="Icxeci1pG1sWBom1-_w5-77">
          <mxGeometry x="1" relative="1" as="geometry">
            <mxPoint x="-25" y="32" as="offset" />
          </mxGeometry>
        </mxCell>
        <mxCell id="Icxeci1pG1sWBom1-_w5-83" value="" style="endArrow=classic;html=1;rounded=0;" edge="1" parent="1" source="Icxeci1pG1sWBom1-_w5-25" target="Icxeci1pG1sWBom1-_w5-57">
          <mxGeometry relative="1" as="geometry">
            <mxPoint x="860" y="490" as="sourcePoint" />
            <mxPoint x="1020" y="490" as="targetPoint" />
          </mxGeometry>
        </mxCell>
        <mxCell id="Icxeci1pG1sWBom1-_w5-84" value="providedBy" style="edgeLabel;resizable=0;html=1;;align=center;verticalAlign=middle;" connectable="0" vertex="1" parent="Icxeci1pG1sWBom1-_w5-83">
          <mxGeometry relative="1" as="geometry" />
        </mxCell>
        <mxCell id="Icxeci1pG1sWBom1-_w5-85" value="*" style="edgeLabel;resizable=0;html=1;;align=left;verticalAlign=bottom;" connectable="0" vertex="1" parent="Icxeci1pG1sWBom1-_w5-83">
          <mxGeometry x="-1" relative="1" as="geometry">
            <mxPoint x="20" y="-7" as="offset" />
          </mxGeometry>
        </mxCell>
        <mxCell id="Icxeci1pG1sWBom1-_w5-86" value="1" style="edgeLabel;resizable=0;html=1;;align=right;verticalAlign=bottom;" connectable="0" vertex="1" parent="Icxeci1pG1sWBom1-_w5-83">
          <mxGeometry x="1" relative="1" as="geometry">
            <mxPoint x="-10" as="offset" />
          </mxGeometry>
        </mxCell>
        <mxCell id="Icxeci1pG1sWBom1-_w5-87" value="" style="endArrow=classic;html=1;rounded=0;" edge="1" parent="1" source="Icxeci1pG1sWBom1-_w5-25" target="Icxeci1pG1sWBom1-_w5-45">
          <mxGeometry relative="1" as="geometry">
            <mxPoint x="760" y="440" as="sourcePoint" />
            <mxPoint x="920" y="440" as="targetPoint" />
          </mxGeometry>
        </mxCell>
        <mxCell id="Icxeci1pG1sWBom1-_w5-88" value="Forecasting" style="edgeLabel;resizable=0;html=1;;align=center;verticalAlign=middle;" connectable="0" vertex="1" parent="Icxeci1pG1sWBom1-_w5-87">
          <mxGeometry relative="1" as="geometry" />
        </mxCell>
        <mxCell id="Icxeci1pG1sWBom1-_w5-89" value="1" style="edgeLabel;resizable=0;html=1;;align=left;verticalAlign=bottom;" connectable="0" vertex="1" parent="Icxeci1pG1sWBom1-_w5-87">
          <mxGeometry x="-1" relative="1" as="geometry" />
        </mxCell>
        <mxCell id="Icxeci1pG1sWBom1-_w5-90" value="1" style="edgeLabel;resizable=0;html=1;;align=right;verticalAlign=bottom;" connectable="0" vertex="1" parent="Icxeci1pG1sWBom1-_w5-87">
          <mxGeometry x="1" relative="1" as="geometry">
            <mxPoint x="-10" y="-10" as="offset" />
          </mxGeometry>
        </mxCell>
        <mxCell id="Icxeci1pG1sWBom1-_w5-91" value="" style="endArrow=classic;html=1;rounded=0;" edge="1" parent="1" source="Icxeci1pG1sWBom1-_w5-25" target="Icxeci1pG1sWBom1-_w5-21">
          <mxGeometry relative="1" as="geometry">
            <mxPoint x="690" y="150" as="sourcePoint" />
            <mxPoint x="850" y="150" as="targetPoint" />
          </mxGeometry>
        </mxCell>
        <mxCell id="Icxeci1pG1sWBom1-_w5-92" value="validatedBy" style="edgeLabel;resizable=0;html=1;;align=center;verticalAlign=middle;" connectable="0" vertex="1" parent="Icxeci1pG1sWBom1-_w5-91">
          <mxGeometry relative="1" as="geometry" />
        </mxCell>
        <mxCell id="Icxeci1pG1sWBom1-_w5-93" value="*" style="edgeLabel;resizable=0;html=1;;align=left;verticalAlign=bottom;" connectable="0" vertex="1" parent="Icxeci1pG1sWBom1-_w5-91">
          <mxGeometry x="-1" relative="1" as="geometry">
            <mxPoint x="10" y="-18" as="offset" />
          </mxGeometry>
        </mxCell>
        <mxCell id="Icxeci1pG1sWBom1-_w5-94" value="1" style="edgeLabel;resizable=0;html=1;;align=right;verticalAlign=bottom;" connectable="0" vertex="1" parent="Icxeci1pG1sWBom1-_w5-91">
          <mxGeometry x="1" relative="1" as="geometry">
            <mxPoint x="-21" y="12" as="offset" />
          </mxGeometry>
        </mxCell>
        <mxCell id="Icxeci1pG1sWBom1-_w5-95" value="" style="endArrow=classic;html=1;rounded=0;" edge="1" parent="1" source="Icxeci1pG1sWBom1-_w5-5" target="Icxeci1pG1sWBom1-_w5-21">
          <mxGeometry relative="1" as="geometry">
            <mxPoint x="650" y="60" as="sourcePoint" />
            <mxPoint x="810" y="60" as="targetPoint" />
          </mxGeometry>
        </mxCell>
        <mxCell id="Icxeci1pG1sWBom1-_w5-96" value="generatedBy" style="edgeLabel;resizable=0;html=1;;align=center;verticalAlign=middle;" connectable="0" vertex="1" parent="Icxeci1pG1sWBom1-_w5-95">
          <mxGeometry relative="1" as="geometry" />
        </mxCell>
        <mxCell id="Icxeci1pG1sWBom1-_w5-97" value="1" style="edgeLabel;resizable=0;html=1;;align=left;verticalAlign=bottom;" connectable="0" vertex="1" parent="Icxeci1pG1sWBom1-_w5-95">
          <mxGeometry x="-1" relative="1" as="geometry">
            <mxPoint x="10" as="offset" />
          </mxGeometry>
        </mxCell>
        <mxCell id="Icxeci1pG1sWBom1-_w5-98" value="1" style="edgeLabel;resizable=0;html=1;;align=right;verticalAlign=bottom;" connectable="0" vertex="1" parent="Icxeci1pG1sWBom1-_w5-95">
          <mxGeometry x="1" relative="1" as="geometry">
            <mxPoint x="-20" y="-5" as="offset" />
          </mxGeometry>
        </mxCell>
        <mxCell id="Icxeci1pG1sWBom1-_w5-99" value="" style="endArrow=block;html=1;rounded=0;endFill=0;" edge="1" parent="1" source="Icxeci1pG1sWBom1-_w5-33" target="Icxeci1pG1sWBom1-_w5-13">
          <mxGeometry width="50" height="50" relative="1" as="geometry">
            <mxPoint x="990" y="-290" as="sourcePoint" />
            <mxPoint x="1040" y="-340" as="targetPoint" />
          </mxGeometry>
        </mxCell>
        <mxCell id="Icxeci1pG1sWBom1-_w5-100" value="" style="endArrow=block;html=1;rounded=0;endFill=0;" edge="1" parent="1" source="Icxeci1pG1sWBom1-_w5-29" target="Icxeci1pG1sWBom1-_w5-13">
          <mxGeometry width="50" height="50" relative="1" as="geometry">
            <mxPoint x="1160" y="-340" as="sourcePoint" />
            <mxPoint x="1210" y="-390" as="targetPoint" />
          </mxGeometry>
        </mxCell>
        <mxCell id="Icxeci1pG1sWBom1-_w5-101" value="" style="endArrow=block;html=1;rounded=0;endFill=0;" edge="1" parent="1" source="Icxeci1pG1sWBom1-_w5-57" target="Icxeci1pG1sWBom1-_w5-21">
          <mxGeometry width="50" height="50" relative="1" as="geometry">
            <mxPoint x="1250" y="182" as="sourcePoint" />
            <mxPoint x="1098" y="100" as="targetPoint" />
          </mxGeometry>
        </mxCell>
        <mxCell id="Icxeci1pG1sWBom1-_w5-102" value="" style="endArrow=block;html=1;rounded=0;endFill=0;" edge="1" parent="1" source="Icxeci1pG1sWBom1-_w5-53" target="Icxeci1pG1sWBom1-_w5-21">
          <mxGeometry width="50" height="50" relative="1" as="geometry">
            <mxPoint x="1262" y="40" as="sourcePoint" />
            <mxPoint x="1110" y="-42" as="targetPoint" />
          </mxGeometry>
        </mxCell>
        <mxCell id="Icxeci1pG1sWBom1-_w5-103" value="" style="endArrow=classic;html=1;rounded=0;" edge="1" parent="1" source="Icxeci1pG1sWBom1-_w5-53" target="Icxeci1pG1sWBom1-_w5-29">
          <mxGeometry relative="1" as="geometry">
            <mxPoint x="1560" as="sourcePoint" />
            <mxPoint x="1720" as="targetPoint" />
          </mxGeometry>
        </mxCell>
        <mxCell id="Icxeci1pG1sWBom1-_w5-104" value="assignedTo" style="edgeLabel;resizable=0;html=1;;align=center;verticalAlign=middle;" connectable="0" vertex="1" parent="Icxeci1pG1sWBom1-_w5-103">
          <mxGeometry relative="1" as="geometry" />
        </mxCell>
        <mxCell id="Icxeci1pG1sWBom1-_w5-105" value="1&lt;div&gt;&lt;br&gt;&lt;/div&gt;" style="edgeLabel;resizable=0;html=1;;align=left;verticalAlign=bottom;" connectable="0" vertex="1" parent="Icxeci1pG1sWBom1-_w5-103">
          <mxGeometry x="-1" relative="1" as="geometry">
            <mxPoint y="-10" as="offset" />
          </mxGeometry>
        </mxCell>
        <mxCell id="Icxeci1pG1sWBom1-_w5-106" value="*" style="edgeLabel;resizable=0;html=1;;align=right;verticalAlign=bottom;" connectable="0" vertex="1" parent="Icxeci1pG1sWBom1-_w5-103">
          <mxGeometry x="1" relative="1" as="geometry">
            <mxPoint x="-33" y="22" as="offset" />
          </mxGeometry>
        </mxCell>
        <mxCell id="Icxeci1pG1sWBom1-_w5-107" value="" style="endArrow=classic;html=1;rounded=0;" edge="1" parent="1" source="Icxeci1pG1sWBom1-_w5-29" target="Icxeci1pG1sWBom1-_w5-61">
          <mxGeometry relative="1" as="geometry">
            <mxPoint x="1740" y="-280" as="sourcePoint" />
            <mxPoint x="1900" y="-280" as="targetPoint" />
          </mxGeometry>
        </mxCell>
        <mxCell id="Icxeci1pG1sWBom1-_w5-108" value="logs" style="edgeLabel;resizable=0;html=1;;align=center;verticalAlign=middle;" connectable="0" vertex="1" parent="Icxeci1pG1sWBom1-_w5-107">
          <mxGeometry relative="1" as="geometry" />
        </mxCell>
        <mxCell id="Icxeci1pG1sWBom1-_w5-109" value="1" style="edgeLabel;resizable=0;html=1;;align=left;verticalAlign=bottom;" connectable="0" vertex="1" parent="Icxeci1pG1sWBom1-_w5-107">
          <mxGeometry x="-1" relative="1" as="geometry" />
        </mxCell>
        <mxCell id="Icxeci1pG1sWBom1-_w5-110" value="*" style="edgeLabel;resizable=0;html=1;;align=right;verticalAlign=bottom;" connectable="0" vertex="1" parent="Icxeci1pG1sWBom1-_w5-107">
          <mxGeometry x="1" relative="1" as="geometry">
            <mxPoint x="-10" y="-3" as="offset" />
          </mxGeometry>
        </mxCell>
      </root>
    </mxGraphModel>
  </diagram>
</mxfile>
